<mxfile host="65bd71144e">
    <diagram id="GF_zFdwmiJA2APg4XZbJ" name="Page-1">
        <mxGraphModel dx="2544" dy="2058" grid="1" gridSize="10" guides="1" tooltips="1" connect="1" arrows="1" fold="1" page="1" pageScale="1" pageWidth="850" pageHeight="1100" math="0" shadow="0">
            <root>
                <mxCell id="0"/>
                <mxCell id="1" parent="0"/>
                <mxCell id="15" value="&lt;h1&gt;Data Map&lt;/h1&gt;&lt;div&gt;&lt;br&gt;&lt;/div&gt;" style="text;html=1;strokeColor=none;fillColor=none;spacing=5;spacingTop=-20;whiteSpace=wrap;overflow=hidden;rounded=0;" vertex="1" parent="1">
                    <mxGeometry width="760" height="120" as="geometry"/>
                </mxCell>
                <mxCell id="68" value="" style="endArrow=none;html=1;" edge="1" parent="1" target="69">
                    <mxGeometry width="50" height="50" relative="1" as="geometry">
                        <mxPoint x="80" y="600" as="sourcePoint"/>
                        <mxPoint x="80" y="320" as="targetPoint"/>
                    </mxGeometry>
                </mxCell>
                <mxCell id="69" value="Separate file per user" style="text;html=1;strokeColor=none;fillColor=none;align=center;verticalAlign=middle;whiteSpace=wrap;rounded=0;" vertex="1" parent="1">
                    <mxGeometry x="40" y="300" width="80" height="30" as="geometry"/>
                </mxCell>
                <mxCell id="75" value="" style="edgeStyle=entityRelationEdgeStyle;fontSize=12;html=1;endArrow=ERzeroToMany;exitX=1;exitY=0.5;exitDx=0;exitDy=0;entryX=0;entryY=0.5;entryDx=0;entryDy=0;strokeWidth=2;endSize=17;startSize=17;startArrow=ERone;startFill=0;endFill=0;" edge="1" parent="1">
                    <mxGeometry width="100" height="100" relative="1" as="geometry">
                        <mxPoint y="480" as="sourcePoint"/>
                        <mxPoint x="160" y="480" as="targetPoint"/>
                    </mxGeometry>
                </mxCell>
                <mxCell id="76" value="" style="edgeStyle=entityRelationEdgeStyle;fontSize=12;html=1;endArrow=ERzeroToMany;exitX=1;exitY=0.5;exitDx=0;exitDy=0;entryX=0;entryY=0.5;entryDx=0;entryDy=0;strokeWidth=2;endSize=17;startSize=17;startArrow=ERone;startFill=0;endFill=0;" edge="1" parent="1">
                    <mxGeometry width="100" height="100" relative="1" as="geometry">
                        <mxPoint x="280" y="479.5" as="sourcePoint"/>
                        <mxPoint x="440" y="479.5" as="targetPoint"/>
                    </mxGeometry>
                </mxCell>
                <mxCell id="77" value="" style="edgeStyle=orthogonalEdgeStyle;fontSize=12;html=1;endArrow=ERzeroToMany;exitX=0.5;exitY=0;exitDx=0;exitDy=0;strokeWidth=2;endSize=17;startSize=17;startArrow=ERzeroToOne;startFill=0;curved=1;endFill=0;" edge="1" parent="1">
                    <mxGeometry width="100" height="100" relative="1" as="geometry">
                        <mxPoint x="500" y="700" as="sourcePoint"/>
                        <mxPoint x="500" y="560" as="targetPoint"/>
                    </mxGeometry>
                </mxCell>
                <mxCell id="78" value="" style="edgeStyle=orthogonalEdgeStyle;fontSize=12;html=1;endArrow=ERzeroToMany;exitX=0.5;exitY=1;exitDx=0;exitDy=0;strokeWidth=2;endSize=17;startSize=17;startArrow=ERzeroToOne;startFill=0;curved=1;endFill=0;" edge="1" parent="1">
                    <mxGeometry width="100" height="100" relative="1" as="geometry">
                        <mxPoint x="500" y="260" as="sourcePoint"/>
                        <mxPoint x="500" y="400" as="targetPoint"/>
                    </mxGeometry>
                </mxCell>
                <mxCell id="79" value="Users" style="swimlane;childLayout=stackLayout;horizontal=1;startSize=30;horizontalStack=0;rounded=1;fontSize=14;fontStyle=0;strokeWidth=2;resizeParent=0;resizeLast=1;shadow=0;dashed=0;align=center;" vertex="1" parent="1">
                    <mxGeometry x="-120" y="420" width="120" height="120" as="geometry"/>
                </mxCell>
                <mxCell id="80" value="uuid&#10;name" style="align=left;strokeColor=none;fillColor=none;spacingLeft=4;fontSize=12;verticalAlign=top;resizable=0;rotatable=0;part=1;" vertex="1" parent="79">
                    <mxGeometry y="30" width="120" height="90" as="geometry"/>
                </mxCell>
                <mxCell id="81" value="Books" style="swimlane;childLayout=stackLayout;horizontal=1;startSize=30;horizontalStack=0;rounded=1;fontSize=14;fontStyle=0;strokeWidth=2;resizeParent=0;resizeLast=1;shadow=0;dashed=0;align=center;" vertex="1" parent="1">
                    <mxGeometry x="160" y="420" width="120" height="120" as="geometry"/>
                </mxCell>
                <mxCell id="82" value="book_id&#10;name&#10;description&#10;sort_pos" style="align=left;strokeColor=none;fillColor=none;spacingLeft=4;fontSize=12;verticalAlign=top;resizable=0;rotatable=0;part=1;" vertex="1" parent="81">
                    <mxGeometry y="30" width="120" height="90" as="geometry"/>
                </mxCell>
                <mxCell id="83" value="Transactions" style="swimlane;childLayout=stackLayout;horizontal=1;startSize=30;horizontalStack=0;rounded=1;fontSize=14;fontStyle=0;strokeWidth=2;resizeParent=0;resizeLast=1;shadow=0;dashed=0;align=center;" vertex="1" parent="1">
                    <mxGeometry x="440" y="400" width="120" height="160" as="geometry"/>
                </mxCell>
                <mxCell id="84" value="transaction_id&#10;name&#10;amount&#10;notes&#10;category_id&#10;account_id&#10;date&#10;sort_pos" style="align=left;strokeColor=none;fillColor=none;spacingLeft=4;fontSize=12;verticalAlign=top;resizable=0;rotatable=0;part=1;" vertex="1" parent="83">
                    <mxGeometry y="30" width="120" height="130" as="geometry"/>
                </mxCell>
                <mxCell id="86" value="Accounts" style="swimlane;childLayout=stackLayout;horizontal=1;startSize=30;horizontalStack=0;rounded=1;fontSize=14;fontStyle=0;strokeWidth=2;resizeParent=0;resizeLast=1;shadow=0;dashed=0;align=center;" vertex="1" parent="1">
                    <mxGeometry x="440" y="140" width="120" height="120" as="geometry"/>
                </mxCell>
                <mxCell id="87" value="account_id&#10;name&#10;description" style="align=left;strokeColor=none;fillColor=none;spacingLeft=4;fontSize=12;verticalAlign=top;resizable=0;rotatable=0;part=1;" vertex="1" parent="86">
                    <mxGeometry y="30" width="120" height="90" as="geometry"/>
                </mxCell>
                <mxCell id="88" value="Categories" style="swimlane;childLayout=stackLayout;horizontal=1;startSize=30;horizontalStack=0;rounded=1;fontSize=14;fontStyle=0;strokeWidth=2;resizeParent=0;resizeLast=1;shadow=0;dashed=0;align=center;" vertex="1" parent="1">
                    <mxGeometry x="440" y="700" width="120" height="120" as="geometry"/>
                </mxCell>
                <mxCell id="89" value="category_id&#10;name&#10;description" style="align=left;strokeColor=none;fillColor=none;spacingLeft=4;fontSize=12;verticalAlign=top;resizable=0;rotatable=0;part=1;" vertex="1" parent="88">
                    <mxGeometry y="30" width="120" height="90" as="geometry"/>
                </mxCell>
            </root>
        </mxGraphModel>
    </diagram>
</mxfile>